<svg xmlns="http://www.w3.org/2000/svg" id="Layer_1" data-name="Layer 1" viewBox="0 0 1660 522"><defs><style>.cls-1{opacity:.3}.cls-2{fill:#39d5c5}.cls-3{fill:#0098f7}.cls-4{fill:#6a72e4}.cls-5{fill:#ffe1a3}.cls-6{fill:#ff8a7e}</style></defs><title>editor-bg</title><g class="cls-1"><rect width="166" height="20" x="110" y="200" class="cls-2" rx="10" ry="10"/></g><g class="cls-1"><rect width="404" height="20" x="451" class="cls-3" rx="10" ry="10"/></g><g class="cls-1"><rect width="200" height="20" x="736" y="100" class="cls-4" rx="10" ry="10"/></g><g class="cls-1"><rect width="300" height="20" x="836" y="500" class="cls-5" rx="10" ry="10"/></g><g class="cls-1"><rect width="300" height="20" y="401" class="cls-6" rx="10" ry="10"/></g><g class="cls-1"><rect width="218" height="20" x="1333" class="cls-4" rx="10" ry="10"/></g><g class="cls-1"><rect width="20" height="20" x="1184" class="cls-2" rx="10" ry="10"/></g><g class="cls-1"><rect width="80" height="20" x="1322" y="200" class="cls-3" rx="10" ry="10"/></g><g class="cls-1"><rect width="404" height="20" x="245" y="300" class="cls-3" rx="10" ry="10"/></g><g class="cls-1"><rect width="310" height="20" x="783" y="200" class="cls-5" rx="10" ry="10"/></g><g class="cls-1"><rect width="20" height="20" x="424" y="200" class="cls-3" rx="10" ry="10"/></g><g class="cls-1"><rect width="20" height="20" x="576.5" y="200" class="cls-6" rx="10" ry="10"/></g><g class="cls-1"><rect width="404" height="20" x="622" y="401" class="cls-3" rx="10" ry="10"/></g><g class="cls-1"><rect width="20" height="20" x="524" y="400" class="cls-2" rx="10" ry="10"/></g><g class="cls-1"><rect width="20" height="20" x="384" y="401" class="cls-3" rx="10" ry="10"/></g><g class="cls-1"><rect width="218" height="20" x="1442" y="297" class="cls-4" rx="10" ry="10"/></g><g class="cls-1"><rect width="100" height="20" x="516" y="502" class="cls-2" rx="10" ry="10"/></g><g class="cls-1"><rect width="80" height="20" x="384" y="100" class="cls-3" rx="10" ry="10"/></g><g class="cls-1"><rect width="20" height="20" x="1127" y="397" class="cls-6" rx="10" ry="10"/></g><g class="cls-1"><rect width="166" height="20" x="1276" y="99" class="cls-2" rx="10" ry="10"/></g></svg>